<?xml version="1.0" encoding="utf-8"?>
<!-- Generator: Adobe Illustrator 23.0.2, SVG Export Plug-In . SVG Version: 6.00 Build 0)  -->
<svg version="1.1" id="Layer_1" xmlns="http://www.w3.org/2000/svg" xmlns:xlink="http://www.w3.org/1999/xlink" x="0px" y="0px"
	 viewBox="0 0 300 300" style="enable-background:new 0 0 300 300;" xml:space="preserve">
<style type="text/css">
	.st0{fill:#DC382D;}
</style>
<g>
	<path class="st0" d="M251.2,206.1c-11.7,6.1-72.4,35-85.4,41.8c-12.9,6.7-20.1,6.7-30.3,1.8c-10.2-4.9-74.8-32.9-86.5-38.5
		c-5.8-2.8-8.9-5.1-8.9-7.3v-9.5c0,0,76.1,34.6,94.6,42.2c12.4,4.3,18.6,4.3,29.8-0.8c12.9-6.2,95.2-45.4,95.2-45.4s0,6,0,8
		C259.8,200.6,257.2,203,251.2,206.1z"/>
	<path class="st0" d="M251.2,150.1c-11.7,6.1-72.4,35-85.4,41.8c-12.9,6.7-20.1,6.7-30.3,1.8c-10.2-4.9-74.8-32.9-86.5-38.5
		c-5.8-2.8-8.9-5.1-8.9-7.3v-9.5c0,0,76.1,34.6,94.6,42.2c12.4,4.3,18.6,4.3,29.8-0.8c12.9-6.2,95.2-45.4,95.2-45.4s0,6,0,8
		C259.8,144.6,257.2,147,251.2,150.1z"/>
	<path class="st0" d="M251.2,178.1c-11.7,6.1-72.4,35-85.4,41.8c-12.9,6.7-20.1,6.7-30.3,1.8c-10.2-4.9-74.8-32.9-86.5-38.5
		c-5.8-2.8-8.9-5.1-8.9-7.3v-9.5c0,0,76.1,34.6,94.6,42.2c12.4,4.3,18.6,4.3,29.8-0.8c12.9-6.2,95.2-45.4,95.2-45.4s0,6,0,8
		C259.8,172.6,257.2,175,251.2,178.1z"/>
	<path class="st0" d="M150,46.9l-30.2,12.3v39.7l30.2,12.3l30.2-12.3V59.2L150,46.9z M148.3,104.4l-24-9.5V64.8l24,9.5V104.4z
		 M124.9,60.8l25.7-10.1l25.7,10.1l-25.7,10.1L124.9,60.8z M176.3,95.5l-23.5,9.5V74.8l23.5-9.5V95.5z"/>
	<path class="st0" d="M241.4,127c-0.2-1-1-3.4-4.1-4.2l-46.6-14.6v8.1l40,12.2L153,159.3c-2.9,0.5-5.3,0.4-7.6,0.1l-76.1-31
		l43.3-13.5v-8.1l-49.9,15.9l-0.9,0.5c-3.4,2.5-3.5,5.2-3.2,6.5c0.2,1,1,3.4,4.1,4.2l80.7,32.7c2,0.3,3.8,0.5,5.6,0.5
		c1.8,0,3.6-0.2,5.6-0.5l82.6-32.7l0.9-0.5C241.6,131,241.6,128.3,241.4,127z"/>
	<path class="st0" d="M175.4,96l0.9,0.3l-25.7,10.1l-25.7-10.1l0.5-0.2l-4.8-1.8l-0.7,0.3v39.7l30.2,12.3l30.2-12.3V94.6l-0.6-0.2
		L175.4,96z M148.3,140.4l-24-9.5v-30.2l24,9.5V140.4z M176.3,130.9l-23.5,9.5v-30.2l23.5-9.5V130.9z"/>
</g>
</svg>
