<?xml version="1.0" encoding="utf-8"?>
<!-- Generator: Adobe Illustrator 23.1.1, SVG Export Plug-In . SVG Version: 6.00 Build 0)  -->
<svg version="1.1" id="Layer_1" xmlns="http://www.w3.org/2000/svg" xmlns:xlink="http://www.w3.org/1999/xlink" x="0px" y="0px"
	 viewBox="0 0 50.6 43.7" style="enable-background:new 0 0 50.6 43.7;" xml:space="preserve">
<style type="text/css">
	.st0{fill:#DC382D;}
</style>
<path class="st0" d="M48.8,6.9V37c0,2.8-2.2,5-5,5H8.2c-2.8,0-5-2.3-5-5V12.3h1V37c0,2.2,1.8,4,4,4h35.6c2.3,0,4-1.8,4-4V6.9
	c0-2.2-1.8-4-4-4H9.6v-1h34.2C46.6,1.9,48.8,4.1,48.8,6.9z M3.7,10.8c-1.6,0-2.9-1.3-2.9-2.9c0-1.6,1.3-2.9,2.9-2.9S6.6,6.4,6.6,8
	C6.6,9.5,5.3,10.8,3.7,10.8z M3.7,9.8c1,0,1.9-0.8,1.9-1.9S4.7,6.1,3.7,6.1S1.8,6.9,1.8,8S2.7,9.8,3.7,9.8z M14.2,25.3l0.4-0.2
	c-1.2-0.5-2.2-0.9-2.6-1.1c-0.8-0.4-1.5-0.8-1.5-1.5c0-0.7,0.8-1,1.5-1.3c0.5-0.2,1.5-0.6,2.8-1.1c-1.3-0.5-2.4-1-2.8-1.2
	c-0.8-0.4-1.5-0.8-1.5-1.5c0-0.7,0.8-1,1.5-1.3c0.6-0.2,2.2-0.9,4.1-1.6c3.1-1.2,6.9-2.7,8.1-3.1c1.9-0.7,2.7-0.7,4.4-0.1
	c0.8,0.3,3.5,1.4,6.1,2.4c2.3,0.9,4.5,1.8,5.3,2.1c0.8,0.3,1.5,0.6,1.5,1.3c0,0.7-0.7,1.1-1.4,1.5c-0.5,0.3-1.5,0.7-2.8,1.3
	c1.2,0.5,2.3,0.9,2.7,1.1c0.8,0.3,1.5,0.6,1.5,1.3c0,0.7-0.7,1.1-1.4,1.5c-0.4,0.2-1.4,0.7-2.6,1.2c1.2,0.4,2.1,0.8,2.5,1
	c0.8,0.3,1.5,0.6,1.5,1.3c0,0.7-0.7,1.1-1.4,1.5c-0.8,0.4-3.1,1.4-5.5,2.4c-2.6,1.1-5.2,2.2-6.1,2.7c-1,0.5-1.8,0.8-2.6,0.8
	c-0.7,0-1.3-0.2-2-0.5c-0.7-0.3-3.3-1.4-5.7-2.4c-2.6-1.1-5.3-2.2-6.1-2.6c-0.8-0.4-1.5-0.8-1.5-1.5c0-0.7,0.8-1,1.5-1.3
	C12.4,26,13.2,25.7,14.2,25.3z M12.4,18c0.8,0.4,3.5,1.5,6,2.5c2.6,1.1,5.1,2.1,5.8,2.4c1.2,0.6,2,0.7,3.7-0.2
	c0.9-0.5,3.6-1.6,6.2-2.8c2.3-1,4.7-2,5.4-2.4l0,0c0.6-0.3,0.8-0.5,0.9-0.6c-0.1-0.1-0.3-0.2-0.8-0.4c-0.7-0.3-2.9-1.1-5.3-2.1
	c-2.6-1-5.3-2.1-6.1-2.4c-1.5-0.5-2-0.5-3.7,0.1c-1.1,0.4-5,1.9-8.1,3.1c-1.9,0.7-3.5,1.4-4.1,1.6c-0.6,0.2-0.8,0.4-0.8,0.4
	C11.6,17.5,11.8,17.7,12.4,18z M12.4,23.1c0.8,0.4,3.5,1.5,6,2.5c2.6,1.1,5.1,2.1,5.8,2.4c1.2,0.6,2,0.7,3.7-0.2
	c0.9-0.5,3.6-1.6,6.2-2.8c2.3-1,4.7-2,5.4-2.4c0.6-0.3,0.8-0.5,0.9-0.6c-0.1-0.1-0.3-0.2-0.8-0.4c-0.6-0.2-2-0.8-3.7-1.4
	c-0.5,0.2-0.9,0.4-1.4,0.6c-2.6,1.1-5.2,2.2-6.1,2.7c-1,0.5-1.8,0.8-2.6,0.8c-0.7,0-1.3-0.2-2-0.5c-0.7-0.3-3.3-1.4-5.7-2.4
	c-0.6-0.3-1.3-0.5-1.9-0.8l-0.6,0.2c-1.5,0.6-2.7,1.1-3.2,1.3c-0.6,0.2-0.8,0.4-0.8,0.4C11.6,22.6,11.8,22.8,12.4,23.1z M14.6,26.2
	c-1,0.4-1.9,0.7-2.2,0.9c-0.6,0.2-0.8,0.4-0.8,0.4c0,0,0.2,0.2,0.9,0.5c0.8,0.4,3.5,1.5,6,2.5c2.6,1.1,5.1,2.1,5.8,2.4
	c1.2,0.6,2,0.7,3.7-0.2c0.9-0.5,3.6-1.6,6.2-2.8c2.3-1,4.7-2,5.4-2.4c0.6-0.3,0.8-0.5,0.9-0.6c-0.1-0.1-0.3-0.2-0.8-0.4
	c-0.5-0.2-1.9-0.7-3.5-1.3c-0.5,0.2-1.1,0.5-1.6,0.7c-2.6,1.1-5.2,2.2-6.1,2.7c-1,0.5-1.8,0.8-2.6,0.8c-0.7,0-1.3-0.2-2-0.5
	c-0.7-0.3-3.3-1.4-5.7-2.4c-0.7-0.3-1.4-0.6-2.1-0.9L14.6,26.2z"/>
</svg>
